<?xml version="1.0" encoding="UTF-8"?>
<svg xmlns="http://www.w3.org/2000/svg" xmlns:xlink="http://www.w3.org/1999/xlink" width="112" zoomAndPan="magnify" viewBox="0 0 84 37.5" height="50" preserveAspectRatio="xMidYMid meet" version="1.0">
  <defs>
    <g></g>
    <clipPath id="b072ea6ede">
      <path d="M 0.550781 0 L 83.445312 0 L 83.445312 37.007812 L 0.550781 37.007812 Z M 0.550781 0 " clip-rule="nonzero"></path>
    </clipPath>
    <clipPath id="3e518c2c14">
      <path d="M 0.550781 0 L 28.390625 0 L 28.390625 27.835938 L 0.550781 27.835938 Z M 0.550781 0 " clip-rule="nonzero"></path>
    </clipPath>
  </defs>
  <g clip-path="url(#b072ea6ede)">
    <path fill="#ffffff" d="M 0.550781 0 L 83.449219 0 L 83.449219 37.007812 L 0.550781 37.007812 Z M 0.550781 0 " fill-opacity="1" fill-rule="nonzero"></path>
    <path fill="#ffffff" d="M 0.550781 0 L 83.449219 0 L 83.449219 37.007812 L 0.550781 37.007812 Z M 0.550781 0 " fill-opacity="1" fill-rule="nonzero"></path>
  </g>
  <g clip-path="url(#3e518c2c14)">
    <path fill="#ff0000" d="M 28.054688 14.160156 C 27.90625 14.402344 27.65625 14.546875 27.40625 14.683594 C 27.511719 14.835938 27.507812 15.042969 27.460938 15.222656 C 27.414062 15.402344 27.328125 15.566406 27.28125 15.746094 C 27.230469 15.925781 27.246094 16.164062 27.347656 16.316406 C 27.203125 16.324219 27.085938 16.4375 27.027344 16.570312 C 26.96875 16.699219 26.960938 16.847656 26.949219 16.988281 C 26.933594 17.132812 26.914062 17.28125 26.839844 17.402344 L 26.84375 17.402344 C 27.050781 17.484375 27.261719 17.574219 27.410156 17.738281 C 27.453125 17.789062 27.488281 17.84375 27.511719 17.902344 C 27.5625 18.042969 27.539062 18.199219 27.484375 18.335938 C 27.425781 18.472656 27.335938 18.589844 27.246094 18.707031 C 27.363281 18.824219 27.550781 18.953125 27.605469 19.105469 C 27.636719 19.203125 27.640625 19.3125 27.65625 19.414062 C 27.707031 19.777344 27.898438 20.121094 27.886719 20.492188 C 27.886719 20.527344 27.859375 20.558594 27.828125 20.578125 C 27.792969 20.597656 27.757812 20.609375 27.726562 20.625 C 27.609375 20.683594 27.550781 20.816406 27.527344 20.941406 C 27.503906 21.070312 27.507812 21.199219 27.480469 21.324219 C 27.425781 21.582031 27.226562 21.792969 27.058594 21.992188 C 27.148438 22.109375 27.246094 22.226562 27.296875 22.367188 C 27.351562 22.503906 27.355469 22.671875 27.277344 22.796875 C 27.179688 22.953125 26.949219 23.027344 26.769531 23.070312 C 26.902344 23.199219 27.039062 23.335938 27.066406 23.515625 C 27.082031 23.640625 27.042969 23.769531 27.058594 23.890625 C 27.074219 24 27.128906 24.097656 27.199219 24.183594 C 27.269531 24.265625 27.355469 24.332031 27.4375 24.402344 C 27.285156 24.628906 27.300781 24.957031 27.371094 25.222656 C 27.445312 25.488281 27.570312 25.734375 27.640625 26.003906 C 27.730469 26.339844 27.726562 26.707031 27.625 27.042969 C 27.167969 27.148438 26.640625 27.152344 26.195312 27 C 25.992188 26.929688 25.796875 26.832031 25.585938 26.789062 C 25.375 26.742188 25.121094 26.75 24.949219 26.878906 C 24.871094 26.75 24.75 26.648438 24.609375 26.589844 C 24.449219 26.527344 24.269531 26.523438 24.09375 26.496094 C 23.921875 26.46875 23.730469 26.394531 23.632812 26.246094 C 23.589844 26.429688 23.503906 26.601562 23.382812 26.746094 C 23.339844 26.796875 23.289062 26.847656 23.222656 26.855469 C 23.171875 26.863281 23.125 26.847656 23.078125 26.828125 C 22.898438 26.757812 22.726562 26.652344 22.570312 26.542969 C 22.476562 26.539062 22.394531 26.597656 22.332031 26.664062 C 22.265625 26.730469 22.210938 26.808594 22.132812 26.859375 C 21.933594 26.984375 21.664062 26.886719 21.445312 26.972656 C 21.265625 27.039062 21.113281 27.210938 21.011719 27.378906 C 20.949219 27.324219 20.867188 27.304688 20.785156 27.296875 C 20.699219 27.289062 20.617188 27.292969 20.539062 27.277344 C 20.417969 27.25 20.308594 27.175781 20.191406 27.140625 C 20.027344 27.085938 19.84375 27.101562 19.675781 27.046875 C 19.488281 26.984375 19.339844 26.839844 19.199219 26.699219 C 19.027344 26.828125 18.945312 26.859375 18.742188 26.9375 C 18.660156 26.972656 18.570312 27 18.484375 26.980469 C 18.414062 26.960938 18.355469 26.914062 18.304688 26.859375 C 18.152344 26.710938 18.03125 26.515625 17.945312 26.320312 C 17.726562 26.433594 17.449219 26.347656 17.210938 26.425781 C 17.046875 26.476562 16.898438 26.617188 16.839844 26.785156 C 16.71875 26.667969 16.527344 26.667969 16.371094 26.71875 C 16.210938 26.765625 16.066406 26.855469 15.910156 26.90625 C 15.695312 26.972656 15.457031 26.957031 15.25 26.867188 L 15.25 26.820312 C 15.175781 27.117188 14.960938 27.375 14.6875 27.507812 C 14.609375 27.546875 14.523438 27.574219 14.4375 27.5625 C 14.367188 27.550781 14.304688 27.511719 14.246094 27.46875 C 14.03125 27.316406 13.847656 27.117188 13.710938 26.890625 C 13.46875 26.933594 13.21875 26.972656 12.992188 26.875 C 12.875 26.824219 12.773438 26.742188 12.65625 26.699219 C 12.46875 26.628906 12.246094 26.675781 12.101562 26.808594 C 12.070312 26.664062 11.949219 26.546875 11.816406 26.488281 C 11.683594 26.429688 11.535156 26.414062 11.390625 26.398438 C 11.246094 26.382812 11.101562 26.363281 10.96875 26.304688 C 10.945312 26.515625 10.859375 26.679688 10.71875 26.835938 C 10.660156 26.898438 10.589844 26.957031 10.503906 26.972656 C 10.449219 26.980469 10.394531 26.96875 10.339844 26.953125 C 10.148438 26.902344 9.964844 26.8125 9.800781 26.695312 C 9.535156 26.785156 9.378906 27.0625 9.105469 27.125 C 8.976562 27.152344 8.839844 27.128906 8.710938 27.15625 C 8.613281 27.179688 8.519531 27.230469 8.421875 27.261719 C 8.246094 27.3125 8.050781 27.289062 7.894531 27.382812 C 7.808594 27.195312 7.609375 27.042969 7.414062 26.984375 C 7.296875 26.953125 7.175781 26.949219 7.058594 26.925781 C 6.832031 26.878906 6.589844 26.703125 6.453125 26.519531 C 6.351562 26.613281 6.332031 26.628906 6.214844 26.699219 C 6.09375 26.769531 5.953125 26.808594 5.820312 26.789062 C 5.695312 26.773438 5.582031 26.699219 5.503906 26.605469 C 5.421875 26.507812 5.359375 26.347656 5.34375 26.222656 C 5.238281 26.390625 5.046875 26.492188 4.851562 26.511719 C 4.71875 26.527344 4.585938 26.503906 4.453125 26.53125 C 4.269531 26.566406 4.074219 26.722656 3.996094 26.890625 C 3.835938 26.769531 3.617188 26.753906 3.414062 26.785156 C 3.09375 26.828125 2.792969 26.96875 2.480469 27.054688 C 2.117188 27.148438 1.609375 27.152344 1.324219 27.042969 C 1.222656 26.707031 1.21875 26.34375 1.308594 26.003906 C 1.378906 25.738281 1.507812 25.488281 1.578125 25.222656 C 1.648438 24.957031 1.664062 24.632812 1.511719 24.402344 C 1.597656 24.335938 1.679688 24.265625 1.75 24.183594 C 1.820312 24.097656 1.875 24 1.890625 23.894531 C 1.90625 23.769531 1.867188 23.640625 1.882812 23.515625 C 1.910156 23.335938 2.046875 23.199219 2.179688 23.070312 C 2 23.027344 1.769531 22.953125 1.671875 22.796875 C 1.59375 22.671875 1.597656 22.507812 1.652344 22.367188 C 1.703125 22.226562 1.800781 22.109375 1.894531 21.992188 C 1.722656 21.792969 1.523438 21.585938 1.46875 21.328125 C 1.441406 21.199219 1.449219 21.070312 1.421875 20.941406 C 1.398438 20.816406 1.339844 20.6875 1.222656 20.628906 C 1.191406 20.609375 1.152344 20.597656 1.121094 20.582031 C 1.089844 20.5625 1.0625 20.527344 1.0625 20.492188 C 1.046875 20.125 1.242188 19.777344 1.292969 19.414062 C 1.308594 19.3125 1.3125 19.207031 1.34375 19.105469 C 1.398438 18.953125 1.585938 18.824219 1.703125 18.707031 C 1.613281 18.589844 1.523438 18.472656 1.464844 18.335938 C 1.410156 18.199219 1.386719 18.042969 1.441406 17.90625 C 1.460938 17.84375 1.5 17.789062 1.539062 17.738281 C 1.683594 17.574219 1.898438 17.484375 2.105469 17.40625 L 2.109375 17.402344 C 2.035156 17.28125 2.015625 17.132812 2.003906 16.992188 C 1.988281 16.847656 1.980469 16.699219 1.921875 16.570312 C 1.863281 16.4375 1.746094 16.324219 1.601562 16.316406 C 1.707031 16.164062 1.71875 15.925781 1.667969 15.75 C 1.621094 15.570312 1.535156 15.402344 1.488281 15.222656 C 1.441406 15.042969 1.4375 14.839844 1.542969 14.6875 C 1.296875 14.546875 1.042969 14.402344 0.894531 14.160156 C 0.839844 14.066406 0.800781 13.957031 0.820312 13.851562 C 0.832031 13.773438 0.878906 13.703125 0.929688 13.636719 C 1.011719 13.53125 1.105469 13.4375 1.210938 13.351562 C 1.28125 13.296875 1.355469 13.246094 1.410156 13.175781 C 1.464844 13.105469 1.5 13.011719 1.46875 12.925781 C 1.453125 12.785156 1.457031 12.617188 1.503906 12.480469 C 1.550781 12.328125 1.664062 12.203125 1.707031 12.050781 C 1.761719 11.875 1.722656 11.667969 1.601562 11.53125 C 1.683594 11.496094 1.773438 11.460938 1.832031 11.390625 C 1.886719 11.328125 1.914062 11.25 1.933594 11.167969 C 1.992188 10.949219 2.011719 10.71875 2.03125 10.492188 C 2.035156 10.46875 2.035156 10.445312 2.023438 10.425781 C 2.011719 10.40625 1.9375 10.386719 1.925781 10.402344 C 1.671875 10.34375 1.464844 10.125 1.417969 9.867188 C 1.371094 9.609375 1.492188 9.335938 1.707031 9.191406 C 1.519531 9.070312 1.386719 8.863281 1.320312 8.652344 C 1.25 8.4375 1.230469 8.214844 1.195312 7.996094 C 1.164062 7.773438 1.113281 7.550781 1 7.359375 C 1.175781 7.226562 1.371094 7.097656 1.429688 6.890625 C 1.472656 6.738281 1.464844 6.574219 1.5 6.421875 C 1.550781 6.210938 1.6875 6.023438 1.875 5.914062 C 1.78125 5.796875 1.691406 5.644531 1.644531 5.503906 C 1.601562 5.363281 1.597656 5.199219 1.675781 5.070312 C 1.773438 4.910156 1.988281 4.828125 2.175781 4.785156 L 2.179688 4.785156 C 2.089844 4.714844 2.09375 4.71875 2.027344 4.628906 C 1.949219 4.515625 1.914062 4.375 1.890625 4.238281 C 1.871094 4.101562 1.863281 3.964844 1.824219 3.832031 C 1.828125 3.734375 1.777344 3.625 1.695312 3.570312 C 1.644531 3.539062 1.574219 3.515625 1.550781 3.460938 C 1.535156 3.421875 1.542969 3.378906 1.5625 3.34375 C 1.582031 3.3125 1.621094 3.28125 1.65625 3.261719 C 1.644531 2.882812 1.492188 2.523438 1.394531 2.15625 C 1.273438 1.707031 1.234375 1.234375 1.285156 0.769531 C 1.570312 0.660156 2.117188 0.6875 2.480469 0.785156 C 2.796875 0.867188 3.09375 1.007812 3.417969 1.054688 C 3.617188 1.082031 3.835938 1.066406 4 0.945312 C 4.078125 1.117188 4.269531 1.273438 4.453125 1.308594 C 4.585938 1.332031 4.722656 1.3125 4.855469 1.324219 C 5.050781 1.34375 5.242188 1.445312 5.34375 1.613281 C 5.359375 1.488281 5.425781 1.332031 5.503906 1.234375 C 5.585938 1.136719 5.699219 1.066406 5.820312 1.046875 C 5.957031 1.027344 6.097656 1.070312 6.214844 1.136719 C 6.335938 1.207031 6.351562 1.222656 6.453125 1.316406 C 6.589844 1.132812 6.835938 0.960938 7.058594 0.914062 C 7.179688 0.886719 7.300781 0.882812 7.414062 0.851562 C 7.613281 0.796875 7.8125 0.644531 7.894531 0.457031 C 8.050781 0.550781 8.25 0.523438 8.425781 0.578125 C 8.523438 0.605469 8.613281 0.660156 8.714844 0.679688 C 8.84375 0.710938 8.980469 0.683594 9.109375 0.714844 C 9.382812 0.773438 9.539062 1.050781 9.804688 1.140625 C 9.964844 1.023438 10.148438 0.933594 10.34375 0.882812 C 10.398438 0.871094 10.453125 0.859375 10.507812 0.867188 C 10.589844 0.878906 10.664062 0.9375 10.71875 1 C 10.863281 1.160156 10.945312 1.320312 10.96875 1.535156 C 11.101562 1.472656 11.25 1.457031 11.394531 1.441406 C 11.539062 1.425781 11.6875 1.410156 11.820312 1.347656 C 11.953125 1.289062 12.074219 1.171875 12.101562 1.03125 C 12.25 1.164062 12.472656 1.207031 12.65625 1.140625 C 12.777344 1.09375 12.878906 1.011719 12.992188 0.960938 C 13.21875 0.863281 13.46875 0.90625 13.714844 0.945312 C 13.851562 0.71875 14.03125 0.523438 14.246094 0.371094 C 14.308594 0.328125 14.371094 0.289062 14.441406 0.277344 C 14.527344 0.261719 14.613281 0.292969 14.691406 0.328125 C 14.964844 0.460938 15.175781 0.71875 15.253906 1.015625 L 15.253906 0.972656 C 15.457031 0.878906 15.695312 0.867188 15.910156 0.933594 C 16.070312 0.980469 16.214844 1.070312 16.371094 1.121094 C 16.53125 1.167969 16.722656 1.167969 16.84375 1.054688 C 16.898438 1.21875 17.046875 1.359375 17.214844 1.414062 C 17.453125 1.488281 17.726562 1.402344 17.949219 1.519531 C 18.035156 1.320312 18.15625 1.128906 18.308594 0.976562 C 18.359375 0.925781 18.417969 0.875 18.488281 0.859375 C 18.574219 0.835938 18.664062 0.867188 18.742188 0.898438 C 18.945312 0.980469 19.027344 1.007812 19.203125 1.140625 C 19.34375 1 19.488281 0.851562 19.679688 0.789062 C 19.84375 0.734375 20.027344 0.753906 20.195312 0.699219 C 20.3125 0.660156 20.417969 0.589844 20.539062 0.5625 C 20.621094 0.542969 20.703125 0.546875 20.785156 0.539062 C 20.867188 0.53125 20.953125 0.511719 21.015625 0.460938 C 21.113281 0.625 21.265625 0.796875 21.445312 0.867188 C 21.667969 0.953125 21.9375 0.855469 22.136719 0.980469 C 22.214844 1.027344 22.269531 1.105469 22.332031 1.171875 C 22.398438 1.238281 22.480469 1.300781 22.570312 1.292969 C 22.726562 1.1875 22.902344 1.078125 23.078125 1.007812 C 23.125 0.992188 23.175781 0.972656 23.226562 0.980469 C 23.292969 0.992188 23.34375 1.039062 23.386719 1.09375 C 23.507812 1.234375 23.59375 1.40625 23.632812 1.589844 C 23.730469 1.445312 23.925781 1.371094 24.097656 1.34375 C 24.269531 1.3125 24.449219 1.3125 24.613281 1.246094 C 24.753906 1.191406 24.875 1.085938 24.953125 0.957031 C 25.125 1.089844 25.378906 1.097656 25.589844 1.050781 C 25.800781 1.003906 25.996094 0.90625 26.199219 0.839844 C 26.640625 0.6875 27.210938 0.660156 27.667969 0.769531 C 27.71875 1.234375 27.683594 1.707031 27.5625 2.15625 C 27.460938 2.523438 27.308594 2.878906 27.296875 3.261719 C 27.332031 3.277344 27.371094 3.308594 27.390625 3.34375 C 27.414062 3.378906 27.417969 3.421875 27.402344 3.460938 C 27.378906 3.515625 27.308594 3.539062 27.257812 3.570312 C 27.179688 3.625 27.128906 3.734375 27.128906 3.832031 C 27.09375 3.964844 27.082031 4.101562 27.0625 4.238281 C 27.039062 4.375 27.007812 4.515625 26.925781 4.628906 C 26.859375 4.71875 26.863281 4.714844 26.773438 4.78125 L 26.78125 4.78125 C 26.964844 4.828125 27.179688 4.910156 27.277344 5.070312 C 27.355469 5.199219 27.355469 5.363281 27.308594 5.503906 C 27.261719 5.644531 27.171875 5.796875 27.078125 5.914062 C 27.265625 6.023438 27.40625 6.210938 27.453125 6.421875 C 27.488281 6.574219 27.480469 6.738281 27.523438 6.886719 C 27.585938 7.09375 27.777344 7.226562 27.957031 7.359375 C 27.839844 7.550781 27.792969 7.773438 27.757812 7.996094 C 27.722656 8.214844 27.703125 8.4375 27.636719 8.652344 C 27.566406 8.863281 27.4375 9.070312 27.246094 9.1875 C 27.460938 9.332031 27.582031 9.613281 27.535156 9.867188 C 27.488281 10.121094 27.28125 10.34375 27.03125 10.402344 C 27.015625 10.386719 26.941406 10.40625 26.929688 10.425781 C 26.917969 10.441406 26.921875 10.46875 26.921875 10.488281 C 26.941406 10.71875 26.960938 10.949219 27.019531 11.167969 C 27.039062 11.25 27.066406 11.328125 27.121094 11.390625 C 27.183594 11.457031 27.269531 11.496094 27.351562 11.53125 C 27.234375 11.667969 27.191406 11.875 27.246094 12.050781 C 27.289062 12.203125 27.402344 12.328125 27.453125 12.480469 C 27.496094 12.613281 27.5 12.785156 27.484375 12.925781 C 27.453125 13.011719 27.488281 13.105469 27.542969 13.175781 C 27.597656 13.246094 27.675781 13.296875 27.746094 13.351562 C 27.847656 13.4375 27.941406 13.53125 28.023438 13.636719 C 28.074219 13.703125 28.121094 13.773438 28.136719 13.851562 C 28.152344 13.957031 28.113281 14.066406 28.054688 14.160156 Z M 28.054688 14.160156 " fill-opacity="1" fill-rule="nonzero"></path>
    <path fill="#0073ff" d="M 0.550781 0 L 28.394531 0 L 28.394531 27.839844 L 0.550781 27.839844 Z M 0.550781 0 " fill-opacity="1" fill-rule="nonzero"></path>
  </g>
  <g fill="#ffffff" fill-opacity="1">
    <g transform="translate(11.145277, 24.887796)">
      <g>
        <path d="M 13.90625 -6.953125 C 14.382812 -6.660156 14.753906 -6.273438 15.015625 -5.796875 C 15.273438 -5.328125 15.40625 -4.8125 15.40625 -4.25 L 15.40625 -1.421875 C 15.40625 -1.023438 15.269531 -0.6875 15 -0.40625 C 14.726562 -0.132812 14.398438 0 14.015625 0 C 13.617188 0 13.28125 -0.132812 13 -0.40625 C 12.71875 -0.6875 12.578125 -1.023438 12.578125 -1.421875 L 12.578125 -4.25 C 12.578125 -4.382812 12.53125 -4.484375 12.4375 -4.546875 C 12.320312 -4.609375 12.207031 -4.609375 12.09375 -4.546875 L 11.078125 -4.0625 C 10.066406 -3.550781 8.988281 -3.304688 7.84375 -3.328125 C 6.707031 -3.359375 5.632812 -3.648438 4.625 -4.203125 C 4.519531 -4.253906 4.421875 -4.304688 4.328125 -4.359375 C 4.242188 -4.421875 4.15625 -4.484375 4.0625 -4.546875 L 4.0625 -1.421875 C 4.0625 -1.023438 3.925781 -0.6875 3.65625 -0.40625 C 3.382812 -0.132812 3.050781 0 2.65625 0 C 2.257812 0 1.921875 -0.132812 1.640625 -0.40625 C 1.367188 -0.6875 1.234375 -1.023438 1.234375 -1.421875 L 1.234375 -9.921875 C 1.234375 -10.921875 1.4375 -11.878906 1.84375 -12.796875 C 2.25 -13.722656 2.820312 -14.519531 3.5625 -15.1875 C 4.300781 -15.863281 5.144531 -16.359375 6.09375 -16.671875 C 7.039062 -16.992188 8.015625 -17.109375 9.015625 -17.015625 C 10.210938 -16.898438 11.296875 -16.492188 12.265625 -15.796875 C 13.234375 -15.109375 14.003906 -14.234375 14.578125 -13.171875 C 15.148438 -12.109375 15.4375 -10.945312 15.4375 -9.6875 C 15.4375 -9.289062 15.296875 -8.957031 15.015625 -8.6875 C 14.734375 -8.414062 14.398438 -8.28125 14.015625 -8.28125 C 13.617188 -8.28125 13.28125 -8.414062 13 -8.6875 C 12.71875 -8.957031 12.578125 -9.289062 12.578125 -9.6875 C 12.578125 -10.457031 12.40625 -11.171875 12.0625 -11.828125 C 11.71875 -12.484375 11.257812 -13.019531 10.6875 -13.4375 C 10.113281 -13.851562 9.46875 -14.101562 8.75 -14.1875 C 7.488281 -14.300781 6.390625 -13.929688 5.453125 -13.078125 C 4.523438 -12.242188 4.0625 -11.191406 4.0625 -9.921875 C 4.0625 -9.796875 4.066406 -9.648438 4.078125 -9.484375 C 4.210938 -8.242188 4.851562 -7.3125 6 -6.6875 C 6.582031 -6.351562 7.210938 -6.175781 7.890625 -6.15625 C 8.578125 -6.144531 9.222656 -6.289062 9.828125 -6.59375 L 10.84375 -7.109375 C 11.332031 -7.347656 11.847656 -7.453125 12.390625 -7.421875 C 12.941406 -7.398438 13.445312 -7.242188 13.90625 -6.953125 Z M 5.484375 -19.859375 C 5.085938 -19.859375 4.75 -19.992188 4.46875 -20.265625 C 4.195312 -20.546875 4.0625 -20.882812 4.0625 -21.28125 C 4.0625 -21.675781 4.195312 -22.007812 4.46875 -22.28125 C 4.75 -22.5625 5.085938 -22.703125 5.484375 -22.703125 L 11.15625 -22.703125 C 11.550781 -22.703125 11.882812 -22.5625 12.15625 -22.28125 C 12.4375 -22.007812 12.578125 -21.675781 12.578125 -21.28125 C 12.578125 -20.882812 12.4375 -20.546875 12.15625 -20.265625 C 11.882812 -19.992188 11.550781 -19.859375 11.15625 -19.859375 Z M 5.484375 -19.859375 "></path>
      </g>
    </g>
  </g>
  <g fill="#000000" fill-opacity="1">
    <g transform="translate(27.813507, 24.887796)">
      <g>
        <path d="M 14.359375 -14.15625 C 14.734375 -14.0625 15.019531 -13.84375 15.21875 -13.5 C 15.425781 -13.164062 15.484375 -12.8125 15.390625 -12.4375 L 13.21875 -3.828125 C 13.039062 -3.078125 12.707031 -2.414062 12.21875 -1.84375 C 11.738281 -1.269531 11.160156 -0.816406 10.484375 -0.484375 C 9.816406 -0.160156 9.097656 0 8.328125 0 C 7.554688 0 6.832031 -0.160156 6.15625 -0.484375 C 5.476562 -0.816406 4.898438 -1.269531 4.421875 -1.84375 C 3.953125 -2.414062 3.617188 -3.078125 3.421875 -3.828125 L 1.28125 -12.4375 C 1.175781 -12.8125 1.226562 -13.164062 1.4375 -13.5 C 1.644531 -13.84375 1.9375 -14.0625 2.3125 -14.15625 C 2.6875 -14.25 3.039062 -14.191406 3.375 -13.984375 C 3.71875 -13.785156 3.9375 -13.5 4.03125 -13.125 L 6.171875 -4.515625 C 6.296875 -4.023438 6.554688 -3.617188 6.953125 -3.296875 C 7.359375 -2.984375 7.816406 -2.828125 8.328125 -2.828125 C 8.835938 -2.828125 9.289062 -2.984375 9.6875 -3.296875 C 10.09375 -3.617188 10.351562 -4.023438 10.46875 -4.515625 L 12.640625 -13.125 C 12.734375 -13.5 12.945312 -13.785156 13.28125 -13.984375 C 13.613281 -14.179688 13.972656 -14.238281 14.359375 -14.15625 Z M 14.359375 -14.15625 "></path>
      </g>
    </g>
  </g>
  <g fill="#000000" fill-opacity="1">
    <g transform="translate(44.48118, 24.887796)">
      <g>
        <path d="M 13.90625 -4.125 C 14.382812 -3.832031 14.753906 -3.445312 15.015625 -2.96875 C 15.273438 -2.5 15.40625 -1.984375 15.40625 -1.421875 C 15.40625 -1.023438 15.269531 -0.6875 15 -0.40625 C 14.726562 -0.132812 14.398438 0 14.015625 0 C 13.617188 0 13.28125 -0.132812 13 -0.40625 C 12.71875 -0.6875 12.578125 -1.023438 12.578125 -1.421875 C 12.578125 -1.535156 12.53125 -1.628906 12.4375 -1.703125 C 12.320312 -1.765625 12.207031 -1.769531 12.09375 -1.71875 L 11.078125 -1.203125 C 10.066406 -0.691406 8.988281 -0.445312 7.84375 -0.46875 C 6.707031 -0.5 5.632812 -0.796875 4.625 -1.359375 C 3.664062 -1.878906 2.890625 -2.578125 2.296875 -3.453125 C 1.710938 -4.328125 1.363281 -5.296875 1.25 -6.359375 C 1.238281 -6.609375 1.234375 -6.859375 1.234375 -7.109375 C 1.234375 -8.109375 1.429688 -9.0625 1.828125 -9.96875 C 2.234375 -10.875 2.8125 -11.664062 3.5625 -12.34375 C 4.300781 -13.007812 5.144531 -13.5 6.09375 -13.8125 C 7.039062 -14.132812 8.015625 -14.25 9.015625 -14.15625 C 10.210938 -14.039062 11.296875 -13.640625 12.265625 -12.953125 C 13.234375 -12.265625 14 -11.382812 14.5625 -10.3125 C 15.125 -9.25 15.40625 -8.097656 15.40625 -6.859375 C 15.40625 -6.460938 15.269531 -6.125 15 -5.84375 C 14.726562 -5.570312 14.398438 -5.4375 14.015625 -5.4375 C 13.617188 -5.4375 13.28125 -5.570312 13 -5.84375 C 12.71875 -6.125 12.578125 -6.460938 12.578125 -6.859375 C 12.578125 -7.628906 12.40625 -8.34375 12.0625 -9 C 11.71875 -9.65625 11.257812 -10.191406 10.6875 -10.609375 C 10.113281 -11.023438 9.46875 -11.265625 8.75 -11.328125 C 7.488281 -11.441406 6.390625 -11.082031 5.453125 -10.25 C 4.523438 -9.394531 4.0625 -8.347656 4.0625 -7.109375 C 4.0625 -6.953125 4.066406 -6.800781 4.078125 -6.65625 C 4.210938 -5.414062 4.851562 -4.472656 6 -3.828125 C 6.582031 -3.503906 7.210938 -3.332031 7.890625 -3.3125 C 8.578125 -3.300781 9.222656 -3.453125 9.828125 -3.765625 L 10.84375 -4.25 C 11.332031 -4.5 11.847656 -4.609375 12.390625 -4.578125 C 12.941406 -4.554688 13.445312 -4.40625 13.90625 -4.125 Z M 13.90625 -4.125 "></path>
      </g>
    </g>
  </g>
  <g fill="#000000" fill-opacity="1">
    <g transform="translate(61.124269, 24.887796)">
      <g>
        <path d="M 16.84375 -14.1875 C 17.625 -14.1875 18.335938 -13.992188 18.984375 -13.609375 C 19.628906 -13.234375 20.140625 -12.722656 20.515625 -12.078125 C 20.898438 -11.429688 21.09375 -10.710938 21.09375 -9.921875 L 21.09375 -1.421875 C 21.09375 -1.023438 20.957031 -0.6875 20.6875 -0.40625 C 20.414062 -0.132812 20.082031 0 19.6875 0 C 19.289062 0 18.953125 -0.132812 18.671875 -0.40625 C 18.398438 -0.6875 18.265625 -1.023438 18.265625 -1.421875 L 18.265625 -9.921875 C 18.265625 -10.316406 18.125 -10.65625 17.84375 -10.9375 C 17.5625 -11.21875 17.226562 -11.359375 16.84375 -11.359375 C 16.445312 -11.359375 16.109375 -11.21875 15.828125 -10.9375 C 15.546875 -10.65625 15.40625 -10.316406 15.40625 -9.921875 L 15.40625 -4.25 C 15.40625 -3.46875 15.21875 -2.753906 14.84375 -2.109375 C 14.46875 -1.472656 13.957031 -0.960938 13.3125 -0.578125 C 12.664062 -0.191406 11.945312 0 11.15625 0 C 10.375 0 9.660156 -0.191406 9.015625 -0.578125 C 8.378906 -0.960938 7.867188 -1.472656 7.484375 -2.109375 C 7.097656 -2.753906 6.90625 -3.46875 6.90625 -4.25 L 6.90625 -9.921875 C 6.90625 -10.316406 6.765625 -10.65625 6.484375 -10.9375 C 6.210938 -11.21875 5.878906 -11.359375 5.484375 -11.359375 C 5.085938 -11.359375 4.75 -11.21875 4.46875 -10.9375 C 4.195312 -10.65625 4.0625 -10.316406 4.0625 -9.921875 L 4.0625 -1.421875 C 4.0625 -1.023438 3.925781 -0.6875 3.65625 -0.40625 C 3.382812 -0.132812 3.050781 0 2.65625 0 C 2.257812 0 1.921875 -0.132812 1.640625 -0.40625 C 1.367188 -0.6875 1.234375 -1.023438 1.234375 -1.421875 L 1.234375 -9.921875 C 1.234375 -10.710938 1.425781 -11.429688 1.8125 -12.078125 C 2.195312 -12.722656 2.707031 -13.234375 3.34375 -13.609375 C 3.976562 -13.992188 4.691406 -14.1875 5.484375 -14.1875 C 6.265625 -14.1875 6.976562 -13.992188 7.625 -13.609375 C 8.28125 -13.234375 8.796875 -12.722656 9.171875 -12.078125 C 9.546875 -11.429688 9.734375 -10.710938 9.734375 -9.921875 L 9.734375 -4.25 C 9.734375 -3.851562 9.867188 -3.515625 10.140625 -3.234375 C 10.421875 -2.960938 10.757812 -2.828125 11.15625 -2.828125 C 11.550781 -2.828125 11.882812 -2.960938 12.15625 -3.234375 C 12.4375 -3.515625 12.578125 -3.851562 12.578125 -4.25 L 12.578125 -9.921875 C 12.578125 -10.710938 12.769531 -11.429688 13.15625 -12.078125 C 13.539062 -12.722656 14.050781 -13.234375 14.6875 -13.609375 C 15.332031 -13.992188 16.050781 -14.1875 16.84375 -14.1875 Z M 16.84375 -14.1875 "></path>
      </g>
    </g>
  </g>
</svg>
