<svg width="110" height="38" viewBox="0 0 110 38" fill="none" xmlns="http://www.w3.org/2000/svg">
<g clip-path="url(#clip0_19_155)">
<mask id="mask0_19_155" style="mask-type:luminance" maskUnits="userSpaceOnUse" x="0" y="0" width="38" height="38">
<path d="M0.734375 0H37.8542V37.1146H0.734375V0Z" fill="white"/>
</mask>
<g mask="url(#mask0_19_155)">
<path d="M37.4072 18.8802C37.2093 19.2031 36.8759 19.3958 36.5426 19.5781C36.6832 19.7812 36.678 20.0573 36.6155 20.2969C36.553 20.5364 36.4384 20.7552 36.3759 20.9948C36.3082 21.2344 36.3291 21.5521 36.4645 21.7552C36.2718 21.7656 36.1155 21.9166 36.0374 22.0937C35.9593 22.2656 35.9489 22.4635 35.9332 22.651C35.9124 22.8437 35.8864 23.0416 35.7874 23.2031H35.7926C36.0687 23.3125 36.3499 23.4323 36.5478 23.651C36.6051 23.7187 36.652 23.7916 36.6832 23.8698C36.7509 24.0573 36.7197 24.2656 36.6468 24.4479C36.5687 24.6302 36.4489 24.7864 36.3291 24.9427C36.4853 25.0989 36.7353 25.2708 36.8082 25.4739C36.8499 25.6041 36.8551 25.75 36.8759 25.8854C36.9437 26.3698 37.1989 26.8281 37.1832 27.3229C37.1832 27.3698 37.1468 27.4114 37.1051 27.4375C37.0582 27.4635 37.0114 27.4791 36.9697 27.5C36.8134 27.5781 36.7353 27.7552 36.7041 27.9219C36.6728 28.0937 36.678 28.2656 36.6416 28.4323C36.5687 28.776 36.303 29.0573 36.0791 29.3229C36.1989 29.4791 36.3291 29.6354 36.3968 29.8229C36.4697 30.0052 36.4749 30.2291 36.3707 30.3958C36.2405 30.6041 35.9332 30.7031 35.6937 30.7604C35.8707 30.9323 36.053 31.1146 36.0895 31.3541C36.1103 31.5208 36.0582 31.6927 36.0791 31.8541C36.0999 32 36.1728 32.1302 36.2666 32.2448C36.3603 32.3541 36.4749 32.4427 36.5843 32.5364C36.3812 32.8385 36.402 33.276 36.4957 33.6302C36.5947 33.9844 36.7614 34.3125 36.8551 34.6719C36.9749 35.1198 36.9697 35.6093 36.8343 36.0573C36.2249 36.1979 35.5218 36.2031 34.928 36C34.6572 35.9062 34.3968 35.776 34.1155 35.7187C33.8343 35.6562 33.4957 35.6666 33.2666 35.8385C33.1624 35.6666 33.0009 35.5312 32.8134 35.4531C32.5999 35.3698 32.3603 35.3646 32.1259 35.3281C31.8968 35.2916 31.6416 35.1927 31.5114 34.9948C31.4541 35.2396 31.3395 35.4687 31.178 35.6614C31.1207 35.7291 31.053 35.7968 30.9645 35.8073C30.8968 35.8177 30.8343 35.7969 30.7718 35.7708C30.5322 35.6771 30.303 35.5364 30.0947 35.3906C29.9697 35.3854 29.8603 35.4635 29.777 35.5521C29.6884 35.6406 29.6155 35.7448 29.5114 35.8125C29.2457 35.9791 28.8864 35.8489 28.5947 35.9635C28.3551 36.0521 28.152 36.2812 28.0166 36.5052C27.9332 36.4323 27.8239 36.4062 27.7145 36.3958C27.5999 36.3854 27.4905 36.3906 27.3864 36.3698C27.2249 36.3333 27.0791 36.2344 26.9228 36.1875C26.7041 36.1146 26.4593 36.1354 26.2353 36.0625C25.9853 35.9791 25.7874 35.7864 25.5999 35.5989C25.3707 35.7708 25.2614 35.8125 24.9905 35.9166C24.8812 35.9635 24.7614 36 24.6468 35.9739C24.553 35.9479 24.4749 35.8854 24.4072 35.8125C24.2041 35.6146 24.0426 35.3541 23.928 35.0937C23.6364 35.2448 23.2666 35.1302 22.9489 35.2344C22.7301 35.3021 22.5322 35.4896 22.4541 35.7135C22.2926 35.5573 22.0374 35.5573 21.8291 35.625C21.6155 35.6875 21.4228 35.8073 21.2145 35.875C20.928 35.9635 20.6103 35.9427 20.3343 35.8229V35.7604C20.2353 36.1562 19.9489 36.5 19.5843 36.6771C19.4801 36.7291 19.3655 36.7656 19.2509 36.75C19.1572 36.7344 19.0739 36.6823 18.9957 36.625C18.7093 36.4219 18.4645 36.1562 18.2822 35.8541C17.9593 35.9114 17.6259 35.9635 17.3239 35.8333C17.1676 35.7656 17.0322 35.6562 16.8759 35.5989C16.6259 35.5052 16.3291 35.5677 16.1364 35.7448C16.0947 35.5521 15.9332 35.3958 15.7562 35.3177C15.5791 35.2396 15.3812 35.2187 15.1884 35.1979C14.9957 35.1771 14.803 35.151 14.6259 35.0729C14.5947 35.3541 14.4801 35.5729 14.2926 35.7812C14.2145 35.8646 14.1207 35.9427 14.0062 35.9635C13.9332 35.9739 13.8603 35.9583 13.7874 35.9375C13.5322 35.8698 13.2874 35.75 13.0687 35.5937C12.7145 35.7135 12.5062 36.0833 12.1416 36.1666C11.9697 36.2031 11.7874 36.1719 11.6155 36.2083C11.4853 36.2396 11.3603 36.3073 11.2301 36.3489C10.9957 36.4166 10.7353 36.3854 10.527 36.5104C10.4124 36.2604 10.1468 36.0573 9.88636 35.9791C9.73011 35.9375 9.56865 35.9323 9.4124 35.901C9.11032 35.8385 8.7874 35.6041 8.60511 35.3594C8.46969 35.4844 8.44365 35.5052 8.2874 35.5989C8.12595 35.6927 7.93845 35.7448 7.76136 35.7187C7.59469 35.6979 7.44365 35.5989 7.33949 35.4739C7.23011 35.3437 7.14678 35.1302 7.12594 34.9635C6.98532 35.1875 6.73011 35.3229 6.46969 35.3489C6.29261 35.3698 6.11553 35.3385 5.93844 35.375C5.69365 35.4219 5.43324 35.6302 5.32907 35.8541C5.11553 35.6927 4.82386 35.6719 4.55303 35.7135C4.12594 35.7708 3.7249 35.9583 3.30824 36.0729C2.82386 36.1979 2.14678 36.2031 1.76657 36.0573C1.63115 35.6093 1.62594 35.125 1.74574 34.6719C1.83949 34.3177 2.01136 33.9844 2.10511 33.6302C2.19886 33.276 2.21969 32.8437 2.01657 32.5364C2.13115 32.4479 2.24053 32.3541 2.33428 32.2448C2.42803 32.1302 2.50094 32 2.52178 31.8594C2.54261 31.6927 2.49053 31.5208 2.51136 31.3541C2.54782 31.1146 2.73011 30.9323 2.9072 30.7604C2.66761 30.7031 2.36032 30.6041 2.23011 30.3958C2.12594 30.2291 2.13115 30.0104 2.20407 29.8229C2.27178 29.6354 2.40199 29.4791 2.52699 29.3229C2.29782 29.0573 2.0322 28.7812 1.95928 28.4375C1.92282 28.2656 1.93324 28.0937 1.89678 27.9219C1.86553 27.7552 1.7874 27.5833 1.63115 27.5052C1.58949 27.4791 1.5374 27.4635 1.49574 27.4427C1.45407 27.4166 1.41761 27.3698 1.41761 27.3229C1.39678 26.8333 1.6572 26.3698 1.7249 25.8854C1.74574 25.75 1.75094 25.6093 1.79261 25.4739C1.86553 25.2708 2.11553 25.0989 2.27178 24.9427C2.15199 24.7864 2.0322 24.6302 1.95407 24.4479C1.88115 24.2656 1.8499 24.0573 1.92282 23.875C1.94886 23.7916 2.00094 23.7187 2.05303 23.651C2.24574 23.4323 2.5322 23.3125 2.80824 23.2083L2.81344 23.2031C2.71449 23.0416 2.68844 22.8437 2.67282 22.6562C2.65199 22.4635 2.64157 22.2656 2.56344 22.0937C2.48532 21.9166 2.32907 21.7656 2.13636 21.7552C2.27699 21.5521 2.29261 21.2344 2.2249 21C2.1624 20.7604 2.04782 20.5364 1.98532 20.2969C1.92282 20.0573 1.91761 19.7864 2.05824 19.5833C1.73011 19.3958 1.39157 19.2031 1.19365 18.8802C1.12074 18.7552 1.06865 18.6094 1.09469 18.4687C1.11032 18.3646 1.17282 18.2708 1.24053 18.1823C1.3499 18.0416 1.4749 17.9166 1.61553 17.8021C1.70928 17.7291 1.80824 17.6614 1.88115 17.5677C1.95407 17.4739 2.00094 17.3489 1.95928 17.2344C1.93844 17.0469 1.94365 16.8229 2.00615 16.6406C2.06865 16.4375 2.21969 16.2708 2.27699 16.0677C2.3499 15.8333 2.29782 15.5573 2.13636 15.375C2.24574 15.3281 2.36553 15.2812 2.44365 15.1875C2.51657 15.1041 2.55303 15 2.57907 14.8906C2.6572 14.5989 2.68324 14.2916 2.70928 13.9896C2.71449 13.9583 2.71449 13.9271 2.69886 13.901C2.68324 13.875 2.58428 13.8489 2.56865 13.8698C2.23011 13.7916 1.95407 13.5 1.89157 13.1562C1.82907 12.8125 1.99053 12.4479 2.27699 12.2552C2.02699 12.0937 1.8499 11.8177 1.76136 11.5364C1.66761 11.25 1.64157 10.9531 1.59469 10.6614C1.55303 10.3646 1.48532 10.0677 1.33428 9.81248C1.56865 9.63539 1.82907 9.46352 1.9072 9.18748C1.96449 8.98435 1.95407 8.7656 2.00094 8.56248C2.06865 8.28123 2.25094 8.03123 2.50094 7.88539C2.37594 7.72914 2.25615 7.52602 2.19365 7.33852C2.13636 7.15102 2.13115 6.93227 2.23532 6.76039C2.36553 6.54685 2.65199 6.43748 2.90199 6.38018H2.9072C2.7874 6.28643 2.79261 6.29164 2.70407 6.17185C2.5999 6.02081 2.55303 5.83331 2.52178 5.65102C2.49574 5.46872 2.48532 5.28643 2.43324 5.10935C2.43844 4.97914 2.37074 4.83331 2.26136 4.76039C2.19365 4.71873 2.0999 4.68748 2.06865 4.61456C2.04782 4.56248 2.05824 4.50518 2.08428 4.45831C2.11032 4.41664 2.1624 4.37498 2.20928 4.34893C2.19365 3.84372 1.99053 3.36456 1.86032 2.87498C1.69886 2.27602 1.64678 1.64581 1.71449 1.02602C2.09469 0.880184 2.82386 0.916642 3.30824 1.04685C3.73011 1.15623 4.12594 1.34372 4.55824 1.40623C4.82386 1.44268 5.11553 1.42185 5.33428 1.26039C5.43844 1.48956 5.69365 1.69789 5.93844 1.74477C6.11553 1.77602 6.29782 1.74998 6.4749 1.7656C6.73532 1.79164 6.99053 1.92706 7.12594 2.15102C7.14678 1.98435 7.23532 1.77602 7.33949 1.64581C7.44886 1.5156 7.5999 1.42185 7.76136 1.39581C7.94365 1.36977 8.13115 1.42706 8.2874 1.5156C8.44886 1.60935 8.46969 1.63018 8.60511 1.75518C8.7874 1.51039 9.11553 1.28123 9.4124 1.21872C9.57386 1.18227 9.73532 1.17706 9.88636 1.13539C10.152 1.06248 10.4176 0.85935 10.527 0.60935C10.7353 0.73435 11.0009 0.697893 11.2353 0.770809C11.3655 0.807267 11.4853 0.880183 11.6207 0.906226C11.7926 0.947893 11.9749 0.911434 12.1468 0.953101C12.5114 1.03123 12.7197 1.40102 13.0739 1.52081C13.2874 1.36456 13.5322 1.24477 13.7926 1.17706C13.8655 1.16143 13.9384 1.14581 14.0114 1.15623C14.1207 1.17185 14.2197 1.24998 14.2926 1.33331C14.4853 1.54685 14.5947 1.76039 14.6259 2.04685C14.803 1.96352 15.0009 1.94268 15.1937 1.92185C15.3864 1.90102 15.5843 1.88018 15.7614 1.79685C15.9384 1.71872 16.0999 1.56248 16.1364 1.37498C16.3343 1.55206 16.6312 1.60935 16.8759 1.52081C17.0374 1.45831 17.1728 1.34893 17.3239 1.28123C17.6259 1.15102 17.9593 1.20831 18.2874 1.26039C18.4697 0.958309 18.7093 0.697893 18.9957 0.494767C19.0791 0.437475 19.1624 0.385391 19.2562 0.369767C19.3707 0.348934 19.4853 0.390601 19.5895 0.437475C19.9541 0.614559 20.2353 0.958309 20.3395 1.35414V1.29685C20.6103 1.17185 20.928 1.15623 21.2145 1.24477C21.428 1.30727 21.6207 1.42706 21.8291 1.49477C22.0426 1.55727 22.2978 1.55727 22.4593 1.40623C22.5322 1.62498 22.7301 1.81248 22.9541 1.88539C23.2718 1.98435 23.6364 1.86977 23.9332 2.02602C24.0478 1.76039 24.2093 1.50518 24.4124 1.30206C24.4801 1.23435 24.5582 1.16664 24.652 1.14581C24.7666 1.11456 24.8864 1.15623 24.9905 1.19789C25.2614 1.30727 25.3707 1.34372 25.6051 1.52081C25.7926 1.33331 25.9853 1.13539 26.2405 1.05206C26.4593 0.979142 26.7041 1.00518 26.928 0.932267C27.0843 0.880183 27.2249 0.786434 27.3864 0.749975C27.4957 0.723934 27.6051 0.729142 27.7145 0.718725C27.8239 0.708309 27.9384 0.682267 28.0218 0.614559C28.152 0.833309 28.3551 1.06248 28.5947 1.15623C28.8916 1.27081 29.2509 1.1406 29.5166 1.30727C29.6207 1.36977 29.6937 1.47393 29.777 1.56248C29.8655 1.65102 29.9749 1.73435 30.0947 1.72393C30.303 1.58331 30.5374 1.43748 30.7718 1.34372C30.8343 1.32289 30.902 1.29685 30.9697 1.30727C31.0582 1.32289 31.1259 1.38539 31.1832 1.45831C31.3447 1.64581 31.4593 1.87498 31.5114 2.11977C31.6416 1.92706 31.902 1.8281 32.1312 1.79164C32.3603 1.74998 32.5999 1.74998 32.8187 1.66143C33.0062 1.58852 33.1676 1.44789 33.2718 1.27602C33.5009 1.4531 33.8395 1.46352 34.1207 1.40102C34.402 1.33852 34.6624 1.20831 34.9332 1.11977C35.5218 0.916642 36.2822 0.880184 36.8916 1.02602C36.9593 1.64581 36.9124 2.27602 36.7509 2.87498C36.6155 3.36456 36.4124 3.83852 36.3968 4.34893C36.4437 4.36977 36.4957 4.41143 36.5218 4.45831C36.553 4.50518 36.5582 4.56248 36.5374 4.61456C36.5062 4.68748 36.4124 4.71873 36.3447 4.76039C36.2405 4.83331 36.1728 4.97914 36.1728 5.10935C36.1259 5.28643 36.1103 5.46872 36.0843 5.65102C36.053 5.83331 36.0114 6.02081 35.902 6.17185C35.8134 6.29164 35.8187 6.28643 35.6989 6.37498H35.7093C35.9541 6.43748 36.2405 6.54685 36.3707 6.76039C36.4749 6.93227 36.4749 7.15102 36.4124 7.33852C36.3499 7.52602 36.2301 7.72914 36.1051 7.88539C36.3551 8.03123 36.5426 8.28123 36.6051 8.56248C36.652 8.7656 36.6416 8.98435 36.6989 9.18227C36.7822 9.45831 37.0374 9.63539 37.277 9.81248C37.1207 10.0677 37.0582 10.3646 37.0114 10.6614C36.9645 10.9531 36.9384 11.25 36.8499 11.5364C36.7562 11.8177 36.5843 12.0937 36.3291 12.25C36.6155 12.4427 36.777 12.8177 36.7145 13.1562C36.652 13.4948 36.3759 13.7916 36.0426 13.8698C36.0218 13.8489 35.9228 13.875 35.9072 13.901C35.8916 13.9219 35.8968 13.9583 35.8968 13.9844C35.9228 14.2916 35.9489 14.5989 36.027 14.8906C36.053 15 36.0895 15.1041 36.1624 15.1875C36.2457 15.276 36.3603 15.3281 36.4697 15.375C36.3134 15.5573 36.2562 15.8333 36.3291 16.0677C36.3864 16.2708 36.5374 16.4375 36.6051 16.6406C36.6624 16.8177 36.6676 17.0469 36.6468 17.2344C36.6051 17.3489 36.652 17.4739 36.7249 17.5677C36.7978 17.6614 36.902 17.7291 36.9957 17.8021C37.1312 17.9166 37.2562 18.0416 37.3655 18.1823C37.4332 18.2708 37.4957 18.3646 37.5166 18.4687C37.5374 18.6094 37.4853 18.7552 37.4072 18.8802Z" fill="#FF0000"/>
<path d="M0.734375 0H37.8594V37.1198H0.734375V0Z" fill="#0073FF"/>
</g>
<path d="M33.4017 23.9131C34.0371 24.3037 34.5319 24.8193 34.8809 25.4548C35.2246 26.0798 35.4017 26.7673 35.4017 27.5173V31.2881C35.4017 31.8193 35.2194 32.2673 34.86 32.6423C34.4954 33.0068 34.0579 33.1839 33.5475 33.1839C33.0163 33.1839 32.5684 33.0068 32.1934 32.6423C31.8184 32.2673 31.6309 31.8193 31.6309 31.2881V27.5173C31.6309 27.3402 31.5684 27.2048 31.4434 27.1214C31.2871 27.0381 31.1361 27.0381 30.985 27.1214L29.6309 27.7673C28.2819 28.4495 26.8444 28.7777 25.3184 28.7464C23.8027 28.7048 22.3704 28.3193 21.0267 27.5798C20.8861 27.512 20.7559 27.4443 20.6309 27.3714C20.5163 27.2881 20.4017 27.2048 20.2767 27.1214V31.2881C20.2767 31.8193 20.0944 32.2673 19.735 32.6423C19.3704 33.0068 18.9277 33.1839 18.4017 33.1839C17.8704 33.1839 17.4225 33.0068 17.0475 32.6423C16.6829 32.2673 16.5059 31.8193 16.5059 31.2881V19.9548C16.5059 18.6214 16.7767 17.3454 17.3184 16.1214C17.86 14.887 18.6204 13.8245 19.61 12.9339C20.5944 12.0329 21.7194 11.3714 22.985 10.9548C24.2454 10.5277 25.5475 10.3714 26.8809 10.4964C28.4746 10.6527 29.9225 11.1943 31.2142 12.1214C32.5059 13.0381 33.5319 14.2048 34.2975 15.6214C35.0579 17.0381 35.4434 18.5902 35.4434 20.2673C35.4434 20.7985 35.2559 21.2412 34.8809 21.6006C34.5059 21.9652 34.0579 22.1423 33.5475 22.1423C33.0163 22.1423 32.5684 21.9652 32.1934 21.6006C31.8184 21.2412 31.6309 20.7985 31.6309 20.2673C31.6309 19.2412 31.4017 18.2881 30.9434 17.4131C30.485 16.5381 29.8704 15.8245 29.11 15.2673C28.3444 14.7152 27.485 14.3818 26.5267 14.2673C24.8444 14.1162 23.3809 14.611 22.1309 15.7464C20.8913 16.861 20.2767 18.262 20.2767 19.9548C20.2767 20.1214 20.2819 20.3193 20.2975 20.5381C20.4746 22.1943 21.3288 23.4339 22.86 24.2673C23.6361 24.7152 24.4746 24.9495 25.3809 24.9756C26.2975 24.9912 27.1569 24.7985 27.9642 24.3923L29.3184 23.7048C29.9694 23.387 30.6569 23.2464 31.3809 23.2881C32.1152 23.3193 32.7871 23.5277 33.4017 23.9131ZM22.1725 6.70475C21.6413 6.70475 21.1934 6.52767 20.8184 6.16309C20.4538 5.78809 20.2767 5.34017 20.2767 4.80892C20.2767 4.28288 20.4538 3.84017 20.8184 3.47559C21.1934 3.10059 21.6413 2.91309 22.1725 2.91309H29.735C30.2611 2.91309 30.7038 3.10059 31.0684 3.47559C31.4434 3.84017 31.6309 4.28288 31.6309 4.80892C31.6309 5.34017 31.4434 5.78809 31.0684 6.16309C30.7038 6.52767 30.2611 6.70475 29.735 6.70475H22.1725Z" fill="white"/>
<path d="M56.2311 14.3088C56.7311 14.4338 57.1114 14.7255 57.377 15.1838C57.653 15.6317 57.7311 16.1005 57.6061 16.6005L54.7103 28.0797C54.4707 29.0797 54.028 29.9651 53.377 30.7255C52.7364 31.4911 51.9655 32.0953 51.0645 32.538C50.1739 32.9703 49.2155 33.1838 48.1895 33.1838C47.1582 33.1838 46.1947 32.9703 45.2936 32.538C44.3874 32.0953 43.6166 31.4911 42.9811 30.7255C42.3561 29.9651 41.9082 29.0797 41.6478 28.0797L38.7936 16.6005C38.653 16.1005 38.7207 15.6317 39.002 15.1838C39.278 14.7255 39.6686 14.4338 40.1686 14.3088C40.6686 14.1838 41.1374 14.2619 41.5853 14.538C42.0436 14.8036 42.3353 15.1838 42.4603 15.6838L45.3145 27.163C45.4811 27.8192 45.8249 28.3609 46.3561 28.788C46.8978 29.2047 47.5072 29.413 48.1895 29.413C48.8666 29.413 49.4707 29.2047 50.002 28.788C50.5436 28.3609 50.8874 27.8192 51.0436 27.163L53.9395 15.6838C54.0645 15.1838 54.3457 14.8036 54.7936 14.538C55.2364 14.2776 55.7155 14.1994 56.2311 14.3088Z" fill="black"/>
<path d="M77.849 27.6834C78.4844 28.074 78.9792 28.5896 79.3281 29.225C79.6719 29.85 79.849 30.5375 79.849 31.2875C79.849 31.8188 79.6667 32.2667 79.3073 32.6417C78.9427 33.0063 78.5052 33.1834 77.9948 33.1834C77.4635 33.1834 77.0156 33.0063 76.6406 32.6417C76.2656 32.2667 76.0781 31.8188 76.0781 31.2875C76.0781 31.1365 76.0156 31.0115 75.8906 30.9125C75.7344 30.8292 75.5833 30.824 75.4323 30.8917L74.0781 31.5792C72.7292 32.2615 71.2917 32.5896 69.7656 32.5584C68.25 32.5167 66.8177 32.1209 65.474 31.3709C64.1927 30.6782 63.1615 29.7459 62.3698 28.5792C61.5885 27.4125 61.125 26.1209 60.974 24.7042C60.9583 24.3709 60.9531 24.0376 60.9531 23.7042C60.9531 22.3709 61.2135 21.1001 61.7448 19.8917C62.2865 18.6834 63.0573 17.6313 64.0573 16.725C65.0417 15.8396 66.1667 15.1834 67.4323 14.7667C68.6927 14.3396 69.9948 14.1834 71.3281 14.3084C72.9219 14.4646 74.3698 14.9959 75.6615 15.9125C76.9531 16.8292 77.974 18.0063 78.724 19.4334C79.474 20.8501 79.849 22.3865 79.849 24.0376C79.849 24.5688 79.6667 25.0167 79.3073 25.3917C78.9427 25.7563 78.5052 25.9334 77.9948 25.9334C77.4635 25.9334 77.0156 25.7563 76.6406 25.3917C76.2656 25.0167 76.0781 24.5688 76.0781 24.0376C76.0781 23.0115 75.849 22.0584 75.3906 21.1834C74.9323 20.3084 74.3177 19.5948 73.5573 19.0376C72.7917 18.4855 71.9323 18.1626 70.974 18.0792C69.2917 17.9282 67.8281 18.4073 66.5781 19.5167C65.3385 20.6573 64.724 22.0532 64.724 23.7042C64.724 23.9126 64.7292 24.1157 64.7448 24.3084C64.9219 25.9646 65.776 27.2198 67.3073 28.0792C68.0833 28.5115 68.9219 28.7407 69.8281 28.7667C70.7448 28.7823 71.6042 28.5792 72.4115 28.1625L73.7656 27.5167C74.4167 27.1834 75.1042 27.0375 75.8281 27.0792C76.5625 27.1105 77.2344 27.3084 77.849 27.6834Z" fill="black"/>
<path d="M103.957 14.2666C104.999 14.2666 105.947 14.527 106.811 15.0374C107.671 15.5374 108.353 16.2197 108.853 17.0791C109.363 17.9437 109.624 18.902 109.624 19.9541V31.2874C109.624 31.8187 109.441 32.2666 109.082 32.6416C108.717 33.0062 108.275 33.1833 107.749 33.1833C107.217 33.1833 106.77 33.0062 106.395 32.6416C106.03 32.2666 105.853 31.8187 105.853 31.2874V19.9541C105.853 19.4281 105.665 18.9749 105.29 18.5999C104.915 18.2249 104.467 18.0374 103.957 18.0374C103.426 18.0374 102.978 18.2249 102.603 18.5999C102.228 18.9749 102.04 19.4281 102.04 19.9541V27.5166C102.04 28.5583 101.79 29.5114 101.29 30.3708C100.79 31.2197 100.108 31.902 99.2487 32.4124C98.3841 32.9281 97.4258 33.1833 96.3737 33.1833C95.332 33.1833 94.3789 32.9281 93.5195 32.4124C92.6706 31.902 91.9883 31.2197 91.4779 30.3708C90.9622 29.5114 90.707 28.5583 90.707 27.5166V19.9541C90.707 19.4281 90.5195 18.9749 90.1445 18.5999C89.7799 18.2249 89.3372 18.0374 88.8112 18.0374C88.2799 18.0374 87.832 18.2249 87.457 18.5999C87.0924 18.9749 86.9154 19.4281 86.9154 19.9541V31.2874C86.9154 31.8187 86.7331 32.2666 86.3737 32.6416C86.0091 33.0062 85.5664 33.1833 85.0404 33.1833C84.5091 33.1833 84.0612 33.0062 83.6862 32.6416C83.3216 32.2666 83.1445 31.8187 83.1445 31.2874V19.9541C83.1445 18.902 83.3997 17.9437 83.9154 17.0791C84.4258 16.2197 85.1081 15.5374 85.957 15.0374C86.8008 14.527 87.7539 14.2666 88.8112 14.2666C89.8529 14.2666 90.8008 14.527 91.6654 15.0374C92.5404 15.5374 93.2279 16.2197 93.7279 17.0791C94.2279 17.9437 94.4779 18.902 94.4779 19.9541V27.5166C94.4779 28.0479 94.6549 28.4958 95.0195 28.8708C95.3945 29.2354 95.8424 29.4124 96.3737 29.4124C96.8997 29.4124 97.3424 29.2354 97.707 28.8708C98.082 28.4958 98.2695 28.0479 98.2695 27.5166V19.9541C98.2695 18.902 98.5247 17.9437 99.0404 17.0791C99.5508 16.2197 100.233 15.5374 101.082 15.0374C101.941 14.527 102.9 14.2666 103.957 14.2666Z" fill="black"/>
</g>
<defs>
<clipPath id="clip0_19_155">
<rect width="110" height="38" fill="white"/>
</clipPath>
</defs>
</svg>
